HIERARCHY
ROOT Hips
{
	OFFSET 0.000000 0.000000 0.000000
	CHANNELS 6 Xposition Yposition Zposition Xrotation Yrotation Zrotation
	JOINT LeftUpLeg_virtual
	{
		OFFSET 0.000000 0.000000 0.000000
		CHANNELS 3 Xrotation Yrotation Zrotation
		JOINT LeftUpLeg
		{
			OFFSET 13.026900 -6.336304 -1.092800
			CHANNELS 3 Xrotation Yrotation Zrotation
			JOINT LeftLeg
			{
				OFFSET 0.524474 -46.096886 9.782700
				CHANNELS 3 Xrotation Yrotation Zrotation
				JOINT LeftFoot
				{
					OFFSET -0.524474 -53.427422 -12.948200
					CHANNELS 3 Xrotation Yrotation Zrotation
					JOINT LeftToeBase
					{
						OFFSET 0.192200 -14.009700 16.364100
						CHANNELS 3 Xrotation Yrotation Zrotation
						JOINT LeftToe_End
						{
							OFFSET -1.784700 -0.561700 9.474800
							CHANNELS 3 Xrotation Yrotation Zrotation
							End Site
							{
								OFFSET 0 0 0
							}
						}
					}
				}
			}
		}
	}
	JOINT RightUpLeg_virtual
	{
		OFFSET 0.000000 0.000000 0.000000
		CHANNELS 3 Xrotation Yrotation Zrotation
		JOINT RightUpLeg
		{
			OFFSET -12.883000 -6.336304 -1.092800
			CHANNELS 3 Xrotation Yrotation Zrotation
			JOINT RightLeg
			{
				OFFSET -0.524587 -46.096825 9.782800
				CHANNELS 3 Xrotation Yrotation Zrotation
				JOINT RightFoot
				{
					OFFSET 0.524587 -53.427383 -12.948300
					CHANNELS 3 Xrotation Yrotation Zrotation
					JOINT RightToeBase
					{
						OFFSET -0.192200 -14.009700 16.364100
						CHANNELS 3 Xrotation Yrotation Zrotation
						JOINT RightToe_End
						{
							OFFSET 1.784700 -0.561700 9.474800
							CHANNELS 3 Xrotation Yrotation Zrotation
							End Site
							{
								OFFSET 0 0 0
							}
						}
					}
				}
			}
		}
	}
	JOINT Spine_virtual
	{
		OFFSET 0.000000 0.000000 0.000000
		CHANNELS 3 Xrotation Yrotation Zrotation
		JOINT Spine
		{
			OFFSET 0.072000 7.257294 -0.789700
			CHANNELS 3 Xrotation Yrotation Zrotation
			JOINT Spine1
			{
				OFFSET 0.000000 12.508769 -0.658067
				CHANNELS 3 Xrotation Yrotation Zrotation
				JOINT Spine1_split
				{
					OFFSET 0.000000 12.508769 -0.658067
					CHANNELS 3 Xrotation Yrotation Zrotation
					JOINT Spine2
					{
						OFFSET 0.000000 12.508769 -0.658067
						CHANNELS 3 Xrotation Yrotation Zrotation
						JOINT Neck_virtual
						{
							OFFSET 0.000000 0.000000 0.000000
							CHANNELS 3 Xrotation Yrotation Zrotation
							JOINT Neck
							{
								OFFSET 0.000000 14.033295 7.520400
								CHANNELS 3 Xrotation Yrotation Zrotation
								JOINT Head
								{
									OFFSET 0.000000 8.198502 5.703100
									CHANNELS 3 Xrotation Yrotation Zrotation
									JOINT HeadTop_End
									{
										OFFSET 0.000000 17.760803 13.332701
										CHANNELS 3 Xrotation Yrotation Zrotation
										End Site
										{
											OFFSET 0 0 0
										}
									}
								}
							}
						}
						JOINT LeftShoulder_virtual
						{
							OFFSET 0.000000 0.000000 0.000000
							CHANNELS 3 Xrotation Yrotation Zrotation
							JOINT LeftShoulder
							{
								OFFSET 6.292450 5.785301 -0.669000
								CHANNELS 3 Xrotation Yrotation Zrotation
								JOINT LeftShoulder_split
								{
									OFFSET 6.292450 5.785301 -0.669000
									CHANNELS 3 Xrotation Yrotation Zrotation
									JOINT LeftArm
									{
										OFFSET 13.907140 -6.093903 1.965100
										CHANNELS 3 Xrotation Yrotation Zrotation
										JOINT LeftForeArm
										{
											OFFSET 34.140198 0.000000 0.000000
											CHANNELS 3 Xrotation Yrotation Zrotation
											JOINT LeftHand
											{
												OFFSET 40.960209 0.000000 0.000000
												CHANNELS 3 Xrotation Yrotation Zrotation
												End Site
												{
													OFFSET 0 0 0
												}
											}
										}
									}
								}
							}
						}
						JOINT RightShoulder_virtual
						{
							OFFSET 0.000000 0.000000 0.000000
							CHANNELS 3 Xrotation Yrotation Zrotation
							JOINT RightShoulder
							{
								OFFSET -6.292450 5.785301 -0.669000
								CHANNELS 3 Xrotation Yrotation Zrotation
								JOINT RightShoulder_split
								{
									OFFSET -6.292450 5.785301 -0.669000
									CHANNELS 3 Xrotation Yrotation Zrotation
									JOINT RightArm
									{
										OFFSET -13.907140 -6.093903 1.965100
										CHANNELS 3 Xrotation Yrotation Zrotation
										JOINT RightForeArm
										{
											OFFSET -34.140198 0.000000 0.000000
											CHANNELS 3 Xrotation Yrotation Zrotation
											JOINT RightHand
											{
												OFFSET -40.960209 0.000000 0.000000
												CHANNELS 3 Xrotation Yrotation Zrotation
												End Site
												{
													OFFSET 0 0 0
												}
											}
										}
									}
								}
							}
						}
					}
				}
			}
		}
	}
}
MOTION
Frames: 10
Frame Time: 0.03333333
15.701051 23.295921 220.572998 0.000000 0.000000 0.000000 -69.685640 2.150234 2.306812 -53.774322 -24.044134 33.225913 87.695606 -21.168134 5.214449 14.624847 -4.687590 -37.105525 6.350433 -2.203007 1.091953 0.000000 0.000000 0.000000 -74.151607 7.800245 5.815581 -73.086350 14.548440 -21.644851 101.501966 12.505219 -3.805835 18.792473 -1.166714 16.683149 24.052159 -2.434451 -9.898943 0.000000 0.000000 0.000000 -76.129903 13.027893 8.681147 4.026758 -8.426521 0.493897 0.465809 0.429888 0.679671 0.161961 -0.015022 -0.072553 0.000000 0.000000 0.000000 -1.609507 3.264510 1.563977 -2.927525 2.255359 11.946669 -17.966292 -31.981517 -6.676685 0.000000 0.000000 0.000000 -4.972510 1.983304 0.200335 -2.801914 -20.035281 -2.344806 -3.687890 3.836829 -2.495900 66.777120 -15.009141 -39.217877 -2.254439 -31.866896 5.708397 0.000000 0.000000 0.000000 -2.904808 1.075492 1.313832 -0.286497 2.366937 12.877540 7.076248 3.753022 -6.232230 74.758797 33.305252 9.476818 -3.317540 15.569823 -2.819200 0.000000 0.000000 0.000000 
16.145769 22.639221 220.576172 0.000000 0.000000 0.000000 -69.624087 2.124959 2.082272 -54.529993 -24.609231 32.297888 87.637522 -20.075681 5.027254 14.595307 -5.188354 -35.492528 6.387166 -2.118717 1.266104 0.000000 0.000000 0.000000 -74.282337 7.885440 5.882964 -71.778178 13.237983 -22.864321 100.807944 12.433952 -4.047187 16.197853 -0.495009 18.612004 24.367666 -2.659366 -10.680866 0.000000 0.000000 0.000000 -76.521601 12.643891 8.400503 4.077624 -8.338621 0.704797 0.704534 0.481064 0.655031 0.131085 0.027741 -0.071906 0.000000 0.000000 0.000000 -1.297720 3.349840 1.526606 -2.119478 2.103477 11.785240 -19.325207 -34.453913 -8.486648 0.000000 0.000000 0.000000 -4.689796 2.066885 0.218303 -2.672233 -19.583971 -2.960508 -2.778748 3.421326 -2.400239 65.284485 -14.933047 -38.360562 -0.921083 -31.021070 6.557404 0.000000 0.000000 0.000000 -2.567473 1.136772 1.270629 -0.244425 1.901472 13.471651 7.022069 3.239044 -6.288492 74.895251 33.388922 9.505695 -3.115895 15.990118 -2.811655 0.000000 0.000000 0.000000 
16.607601 22.026459 220.511719 0.000000 0.000000 0.000000 -69.728677 2.291807 1.939490 -55.399705 -24.949158 31.508274 87.879850 -18.996334 4.838200 14.604314 -5.675391 -33.776990 6.389303 -2.034593 1.429754 0.000000 0.000000 0.000000 -74.304399 8.222896 6.028582 -69.775689 11.367807 -24.039230 99.683797 12.355628 -4.514855 12.755210 0.011870 20.426473 23.997422 -2.714659 -11.570878 0.000000 0.000000 0.000000 -76.990555 12.396764 8.207696 4.222283 -8.213009 0.773413 1.011816 0.542563 0.654851 0.110361 0.029567 -0.072841 0.000000 0.000000 0.000000 -0.953768 3.433912 1.539051 -0.941401 2.080621 11.405595 -20.848471 -36.989405 -10.260537 0.000000 0.000000 0.000000 -4.400207 2.126153 0.220366 -2.519756 -19.010013 -3.727708 -2.101078 3.190409 -2.244081 64.078485 -14.443058 -37.259443 0.417595 -30.896832 7.312346 0.000000 0.000000 0.000000 -2.228611 1.202222 1.295431 -0.137087 1.390046 13.838029 6.892871 2.748275 -6.195318 74.166340 33.528238 10.164612 -3.064377 16.284899 -2.638369 0.000000 0.000000 0.000000 
17.012993 21.587425 220.394897 0.000000 0.000000 0.000000 -69.938426 2.644583 1.868043 -56.332579 -25.152032 30.778414 88.243128 -18.065567 4.693667 14.714041 -6.346254 -32.126170 6.325331 -1.965312 1.579843 0.000000 0.000000 0.000000 -74.260679 8.855582 6.242651 -67.458657 9.043804 -25.102873 98.195232 12.272061 -5.061349 9.367468 0.349625 22.157750 23.061922 -2.642964 -12.418556 0.000000 0.000000 0.000000 -77.411014 12.283751 8.010052 4.413083 -8.072060 0.743670 1.413409 0.623895 0.687696 0.106431 0.009068 -0.067896 0.000000 0.000000 0.000000 -0.572455 3.518976 1.603052 0.511944 2.150943 10.953137 -22.590407 -39.424077 -11.948975 0.000000 0.000000 0.000000 -4.080397 2.182373 0.212761 -2.324389 -18.197425 -4.579709 -1.483208 2.754521 -2.030972 63.239711 -13.595576 -35.809654 1.763947 -31.343957 8.002032 0.000000 0.000000 0.000000 -1.854017 1.280046 1.381324 -0.010110 1.002218 14.043336 6.628508 2.481415 -5.990773 72.699133 33.726798 11.211200 -3.150223 16.500883 -2.302413 0.000000 0.000000 0.000000 
17.330065 21.378799 220.114700 0.000000 0.000000 0.000000 -70.186115 3.076917 1.727335 -57.370112 -25.252806 29.983718 88.507552 -17.325521 4.623958 14.913342 -7.247794 -30.570055 6.253285 -1.912849 1.705940 0.000000 0.000000 0.000000 -74.344232 9.632718 6.387664 -65.120157 6.420804 -26.116224 96.433938 12.303461 -5.622475 6.701133 0.665735 23.818881 22.096739 -2.528907 -13.024204 0.000000 0.000000 0.000000 -77.670944 12.199156 7.647216 4.579726 -7.928082 0.699028 1.899655 0.727244 0.756645 0.100938 -0.025649 -0.064949 0.000000 0.000000 0.000000 -0.158528 3.599291 1.697841 2.057562 2.254138 10.510699 -24.529081 -41.654578 -13.512845 0.000000 0.000000 0.000000 -3.703310 2.246983 0.193652 -2.071196 -17.040528 -5.434984 -0.866214 2.018774 -1.959885 62.716375 -12.553850 -34.021268 3.118298 -32.158812 8.672550 0.000000 0.000000 0.000000 -1.413059 1.377548 1.503117 0.085694 0.801047 14.107815 6.343318 2.436340 -5.731264 70.601808 34.030793 12.461079 -3.376477 16.681596 -1.799077 0.000000 0.000000 0.000000 
17.634256 21.371498 219.749283 0.000000 0.000000 0.000000 -70.321299 3.482597 1.395800 -58.620624 -25.257929 29.000256 88.594807 -16.728750 4.621729 15.197509 -8.348914 -29.109621 6.224374 -1.868626 1.787653 0.000000 0.000000 0.000000 -74.248111 10.525416 6.404661 -62.902320 3.720808 -27.076902 94.325554 12.455036 -6.115332 4.908009 0.981316 25.205338 21.602749 -2.463424 -13.283535 0.000000 0.000000 0.000000 -77.682617 12.057522 7.031828 4.713636 -7.776636 0.733087 2.447646 0.832561 0.854055 0.089558 -0.039743 -0.063762 0.000000 0.000000 0.000000 0.286769 3.670239 1.803113 3.517396 2.359380 10.097151 -26.597272 -43.595957 -14.932826 0.000000 0.000000 0.000000 -3.258731 2.313472 0.163948 -1.760873 -15.541117 -6.260314 -0.247762 1.019893 -2.054015 62.357469 -11.520121 -31.974636 4.515451 -33.021581 9.331344 0.000000 0.000000 0.000000 -0.887750 1.488212 1.631925 0.110925 0.811252 14.031099 5.909054 2.404684 -5.447983 67.965997 34.341556 13.867526 -3.720912 16.910753 -1.168783 0.000000 0.000000 0.000000 
17.978106 21.445602 219.410767 0.000000 0.000000 0.000000 -70.342937 3.771720 0.850128 -60.069178 -25.201346 27.809303 88.471194 -16.143741 4.601292 15.603456 -9.516333 -27.632449 6.206893 -1.822502 1.850951 0.000000 0.000000 0.000000 -74.086229 11.178907 6.086920 -60.891963 1.014490 -27.940523 91.856735 12.537290 -6.371690 3.862567 1.139225 25.904548 21.824469 -2.502653 -13.200076 0.000000 0.000000 0.000000 -77.396309 11.799149 6.192109 4.829523 -7.619257 0.886511 3.048548 0.921736 0.953906 0.071265 -0.023000 -0.069748 0.000000 0.000000 0.000000 0.801293 3.721056 1.892016 4.749183 2.396559 9.708175 -28.614111 -45.185963 -16.196983 0.000000 0.000000 0.000000 -2.734798 2.367629 0.112236 -1.389970 -13.747246 -7.015622 0.309453 -0.084657 -2.308342 61.984937 -10.627397 -29.711716 5.919501 -33.562009 9.918784 0.000000 0.000000 0.000000 -0.289263 1.598168 1.741564 0.040447 1.054050 13.814770 5.315195 2.200600 -5.261077 64.770540 34.565699 15.519628 -4.158396 17.288380 -0.446623 0.000000 0.000000 0.000000 
18.330166 21.528603 219.088959 0.000000 0.000000 0.000000 -70.266514 3.753551 0.057562 -61.710062 -25.039255 26.476523 88.218928 -15.501989 4.513201 16.127974 -10.673635 -26.120074 6.225725 -1.763475 1.904443 0.000000 0.000000 0.000000 -73.862683 11.402664 5.433458 -59.200972 -1.648955 -28.727158 89.160121 12.507058 -6.385759 3.386705 1.164942 25.937001 22.525409 -2.638421 -12.883867 0.000000 0.000000 0.000000 -76.865118 11.411834 5.218927 4.936442 -7.477439 1.148836 3.683527 0.984176 1.038253 0.072507 0.010382 -0.077786 0.000000 0.000000 0.000000 1.370823 3.753888 1.945214 5.663186 2.387728 9.273853 -30.381778 -46.396515 -17.230146 0.000000 0.000000 0.000000 -2.132482 2.404027 0.031699 -0.974500 -11.733665 -7.664182 0.812202 -1.046877 -2.509517 61.496626 -9.941457 -27.255597 7.254688 -33.551091 10.364226 0.000000 0.000000 0.000000 0.363417 1.700254 1.815515 -0.121249 1.432997 13.446371 4.633027 1.902281 -5.079914 61.173681 34.564497 17.484378 -4.640769 17.874195 0.295693 0.000000 0.000000 0.000000 
18.702999 21.547714 218.866791 0.000000 0.000000 0.000000 -70.034075 3.472797 -0.829815 -63.475018 -24.846521 25.095944 87.974114 -14.760266 4.328348 16.784324 -11.757508 -24.582396 6.303197 -1.682226 1.929360 0.000000 0.000000 0.000000 -73.574887 11.084309 4.488372 -58.067154 -4.139635 -29.387524 86.341220 12.383065 -6.243738 3.291751 1.184767 25.641918 23.097880 -2.827219 -12.506034 0.000000 0.000000 0.000000 -76.102596 10.910175 4.195947 5.063410 -7.371981 1.486726 4.336391 1.031448 1.089869 0.085591 0.052737 -0.092602 0.000000 0.000000 0.000000 1.997426 3.783311 1.948025 6.262487 2.351227 8.756419 -31.797693 -47.258024 -18.003043 0.000000 0.000000 0.000000 -1.475402 2.426997 -0.080281 -0.534267 -9.636119 -8.191749 1.327748 -1.798733 -2.472300 60.850633 -9.444576 -24.600094 8.409351 -32.894505 10.564108 0.000000 0.000000 0.000000 1.038381 1.793013 1.841793 -0.359686 1.876102 12.980576 3.849594 1.629416 -4.858617 57.414912 34.227932 19.721886 -5.117195 18.675588 1.017660 0.000000 0.000000 0.000000 
18.985052 21.505943 218.783707 0.000000 0.000000 0.000000 -69.694970 2.955624 -1.721146 -65.212112 -24.696485 23.774912 87.763887 -13.912529 4.042640 17.545793 -12.613391 -23.035863 6.486135 -1.571245 1.900547 0.000000 0.000000 0.000000 -73.319936 10.253003 3.358859 -57.519789 -6.359080 -29.916058 83.599623 12.215203 -6.077127 3.432039 1.327639 25.285384 23.303900 -3.050753 -12.154223 0.000000 0.000000 0.000000 -75.149238 10.260265 3.129688 5.206896 -7.319632 1.835937 4.978955 1.087833 1.096771 0.104918 0.095752 -0.107729 0.000000 0.000000 0.000000 2.664552 3.833739 1.879936 6.597083 2.283943 8.169094 -32.790242 -47.937485 -18.479801 0.000000 0.000000 0.000000 -0.781642 2.462619 -0.230861 -0.091822 -7.560419 -8.605011 1.835254 -2.420331 -2.128441 60.084553 -9.061886 -21.768998 9.335678 -31.909783 10.502305 0.000000 0.000000 0.000000 1.716101 1.887367 1.807053 -0.655555 2.323454 12.450723 3.113753 1.512896 -4.626129 53.780066 33.577661 22.083810 -5.579249 19.609041 1.718729 0.000000 0.000000 0.000000 
